HIERARCHY
ROOT Hips
{
     OFFSET 1.88212 96.90440 -13.34250
     CHANNELS 6 Xposition Yposition Zposition Zrotation Xrotation Yrotation
     JOINT Spine
     {
          OFFSET 0.00000 11.89050 0.00000
          CHANNELS 3 Zrotation Xrotation Yrotation
          JOINT Spine1
          {
               OFFSET -0.00000 25.65740 0.12766
               CHANNELS 3 Zrotation Xrotation Yrotation
               JOINT HEad
               {
                    OFFSET 0.00000 8.73416 0.01134
                    CHANNELS 3 Zrotation Xrotation Yrotation
                    End Site
                    {
                         OFFSET -0.29000 12.77420 2.51395
                    }
               }
               JOINT LeftShoulder1
               {
                    OFFSET 8.99000 -0.36225 -0.22000
                    CHANNELS 3 Zrotation Xrotation Yrotation
                    JOINT LeftArm
                    {
                         OFFSET 10.28270 -0.00338 0.32212
                         CHANNELS 3 Zrotation Xrotation Yrotation
                         JOINT LeftForeArm
                         {
                              OFFSET 32.76690 0.09914 -1.42434
                              CHANNELS 3 Zrotation Xrotation Yrotation
                              JOINT LeftHand
                              {
                                   OFFSET 27.56430 0.08536 1.02216
                                   CHANNELS 3 Zrotation Xrotation Yrotation
                                   End Site
                                   {
                                        OFFSET 16.74430 -0.60000 1.50291
                                   }
                              }
                         }
                    }
               }
               JOINT RightShoulder
               {
                    OFFSET -8.99000 -0.36225 -0.22000
                    CHANNELS 3 Zrotation Xrotation Yrotation
                    JOINT RightArm
                    {
                         OFFSET -10.28270 -0.00338 0.32212
                         CHANNELS 3 Zrotation Xrotation Yrotation
                         JOINT RightForeArm
                         {
                              OFFSET -32.89710 0.09914 -1.42434
                              CHANNELS 3 Zrotation Xrotation Yrotation
                              JOINT RightHand
                              {
                                   OFFSET -27.49210 0.08536 1.02216
                                   CHANNELS 3 Zrotation Xrotation Yrotation
                                   End Site
                                   {
                                        OFFSET -16.63120 -0.60000 1.50291
                                   }
                              }
                         }
                    }
               }
          }
     }
     JOINT LeftUpLeg
     {
          OFFSET 8.94580 -8.66707 0.10165
          CHANNELS 3 Zrotation Xrotation Yrotation
          JOINT LeftLeg
          {
               OFFSET 0.00000 -44.42270 1.37270
               CHANNELS 3 Zrotation Xrotation Yrotation
               JOINT LeftFoot
               {
                    OFFSET -0.25355 -42.09240 -1.46059
                    CHANNELS 3 Zrotation Xrotation Yrotation
                    JOINT LeftToes
                    {
                         OFFSET -0.04000 -4.41509 8.49910
                         CHANNELS 3 Zrotation Xrotation Yrotation
                         End Site
                         {
                              OFFSET 0.08000 -0.04745 9.77979
                         }
                    }
               }
          }
     }
     JOINT RightUpLeg
     {
          OFFSET -8.94580 -8.66707 0.10165
          CHANNELS 3 Zrotation Xrotation Yrotation
          JOINT RightLeg
          {
               OFFSET 0.00000 -44.42270 1.37270
               CHANNELS 3 Zrotation Xrotation Yrotation
               JOINT RightFoot
               {
                    OFFSET 0.25355 -42.09240 -1.46059
                    CHANNELS 3 Zrotation Xrotation Yrotation
                    JOINT RightToes
                    {
                         OFFSET 0.04000 -4.41509 8.49910
                         CHANNELS 3 Zrotation Xrotation Yrotation
                         End Site
                         {
                              OFFSET -0.08000 -0.13745 9.77979
                         }
                    }
               }
          }
     }
}
MOTION
Frames: 13
Frame Time: 0.01667
-251.20413 89.73196 -187.03281 5.45208 -3.21918 73.18378 4.63627 10.58163 4.44105 0.00034 0.00441 -0.00334 -35.78424 20.66629 40.33418 1.22867 5.62497 3.75416 -125.50109 -77.31391 -99.08570 -44.89625 53.58162 -95.42624 9.51616 7.22974 -2.77575 16.72492 8.78550 5.34890 57.91724 -10.38034 74.36542 22.45741 35.86192 94.40044 -4.79871 12.95043 -4.33592 19.60227 -18.14127 15.50235 5.82424 10.17321 -11.89191 12.80589 0.00930 -0.00961 -28.75672 5.48528 4.08844 -18.51322 9.87141 -5.75263 13.78639 12.36674 5.66319 -3.63529 -0.02835 -0.01745 1.72394 -20.56259 -2.55678 
-251.33493 89.76847 -186.80620 5.69697 -3.28566 73.49310 4.71016 10.83491 4.45030 0.00122 0.00434 -0.00372 -34.85271 19.58823 39.25310 1.16273 6.10016 3.09722 -131.65450 -74.54025 -105.34815 -47.73672 56.41864 -92.33726 16.23306 2.68125 -7.66245 13.67702 9.86781 -0.73712 62.76466 -8.00893 77.52420 22.09111 35.81348 94.48042 -2.58803 18.21227 -10.44437 19.91579 -17.77467 14.60906 4.88878 11.00535 -9.25211 9.71617 0.06563 -0.01289 -27.33803 10.80744 1.89363 -18.54303 10.00365 -5.43816 15.05518 12.46060 3.21293 -7.69629 -0.06520 -0.00169 -0.99731 -26.99186 0.35182 
-251.49837 89.91341 -186.56570 6.00905 -3.35732 73.80263 4.78650 11.15463 4.39245 0.00119 0.00281 -0.00554 -33.56636 18.29354 37.86757 1.06981 6.64553 2.24587 -137.36340 -70.57822 -111.40753 -52.32705 59.96035 -87.62819 21.12833 1.99277 -9.22868 11.47107 10.84783 -5.51672 67.15186 -7.56322 79.00976 21.55621 35.81003 94.71799 1.64592 24.19252 -16.90927 20.33506 -17.46341 13.36398 3.53878 12.60789 -5.07405 6.02455 0.11174 -0.04160 -26.65639 18.79866 -0.13918 -18.74512 9.83228 -4.92571 16.66810 13.03299 0.05333 -11.87292 -0.08391 -0.01842 -1.12250 -31.94622 3.15409 
-251.75658 90.20460 -186.28995 6.50937 -3.31971 74.09312 4.67486 11.66650 4.12986 -0.00322 0.00466 -0.01964 -31.06907 16.25072 35.49190 0.92154 7.14406 0.85685 -143.04529 -63.37508 -118.41061 -60.56567 64.90888 -79.84512 23.11175 9.04454 -3.29743 10.97853 10.66850 -6.82323 70.97699 -13.29908 78.17199 20.42902 36.07580 95.06605 11.00328 31.72990 -20.10914 21.21175 -17.74969 11.28746 0.59849 16.79214 3.57204 2.10337 0.26867 -0.07978 -30.17835 30.03868 -0.34100 -19.11901 8.67199 -3.80030 19.98987 14.54040 -5.69987 -17.61488 -0.16887 -0.06281 4.69071 -32.30602 7.13374 
-252.16269 90.63512 -185.98047 7.18102 -3.15923 74.32900 4.33963 12.33780 3.72088 -0.00545 0.00370 -0.01967 -27.64138 13.46971 32.36414 0.69139 7.47740 -0.15387 -145.48651 -54.02378 -122.95412 -70.22070 67.33218 -65.93658 30.64218 0.24086 -20.47500 10.54576 10.44293 -7.84908 75.94014 -20.71283 79.20995 18.68118 36.98153 94.98613 9.15604 16.81131 -9.38367 22.55774 -19.08860 8.97127 -4.50067 22.77693 15.30867 -0.10564 0.22012 -0.07102 -29.32357 40.77664 -6.07180 -19.71992 6.84016 -1.99753 24.45976 16.23285 -13.65024 -24.35555 -0.23263 -0.14452 9.59213 -35.63073 12.27287 
-252.74617 91.16391 -185.66188 9.61432 -1.57416 74.45065 2.00640 15.15745 2.17235 -0.00673 0.06843 -0.10375 -23.64170 8.65070 29.46127 0.11368 6.82430 0.43794 -145.86069 -43.75899 -126.23850 -80.08601 67.70084 -49.50089 27.79296 11.01354 -3.57383 9.74657 9.56624 -7.07341 79.85667 -24.71530 80.56337 11.28357 36.08744 97.49352 20.00177 32.16262 -11.23761 22.33191 -20.46673 6.75884 -12.06547 29.82225 29.34277 -1.60970 0.18521 -0.07456 -14.95960 35.54023 -21.01317 -22.61197 6.67944 0.41037 29.63713 16.63918 -22.07795 -31.76207 -0.25732 -0.21447 16.61760 -37.58941 17.96038 
-253.46561 91.70353 -185.39590 13.38764 1.21042 74.05996 -2.06201 18.82420 1.19762 -0.00398 0.00074 -0.01108 -19.09203 3.59327 26.13527 -0.14982 6.32642 0.57765 -146.32533 -37.58223 -128.94873 -86.61365 67.21889 -39.32755 32.36448 5.90651 -14.36692 8.98054 8.88374 -6.37181 82.74892 -26.10178 82.01830 0.51542 33.67741 102.77812 17.03123 7.20129 -0.84122 20.65625 -21.90259 5.56452 -22.08900 37.10001 45.45134 -1.83593 0.08654 -0.03892 -5.68111 53.19202 -36.69886 -27.51125 7.68252 3.68125 33.94556 16.06393 -29.83201 -30.16308 0.04757 0.01832 15.53177 -40.13313 23.57022 
-254.21915 92.13166 -185.27327 18.19345 4.84421 72.69450 -7.59181 22.58035 1.04768 0.00171 0.00123 -0.00359 -14.34267 -1.58556 22.92677 0.00296 6.17602 0.73877 -147.00673 -34.04168 -131.34764 -89.91716 66.58979 -33.31317 30.07518 11.65730 -4.18854 8.43270 8.62554 -5.40949 82.80885 -22.66970 85.19885 -7.66026 30.65775 102.86707 19.72100 30.25948 10.46469 17.73723 -22.66196 5.98843 -32.14480 43.28625 62.71390 -2.97113 0.11844 -0.05282 6.82936 40.76890 -48.35213 -34.22193 9.25127 8.13418 38.38585 14.15217 -36.22721 -29.27525 0.04303 0.00848 14.84988 -41.13409 28.34162 
-254.90140 92.33234 -185.34900 22.37321 7.73566 71.14135 -12.25862 25.29893 0.89526 0.00660 0.00426 -0.00052 -9.64452 -6.62123 19.57271 0.12148 6.38138 1.12115 -142.44992 -33.67691 -132.23047 -80.43619 64.19510 -39.77107 32.95716 8.63551 -10.60004 7.72510 8.77321 -4.21364 80.66392 -16.44312 88.61750 -14.55770 27.61561 100.48118 26.56326 -5.78744 20.29965 15.21092 -23.41579 7.60735 -39.46863 48.09904 76.51756 -4.95530 0.17676 -0.03408 25.10069 56.90269 -59.96046 -40.47331 10.41121 12.49464 41.44858 12.91381 -40.93613 -26.93048 0.06517 0.02301 13.78046 -42.06966 31.87505 
-255.44398 92.26874 -185.58592 25.99295 9.98580 69.47464 -15.98872 27.13900 0.63282 0.01017 0.00831 0.00419 -5.82374 -10.82151 17.20372 0.18952 6.88518 1.65006 -135.01982 -36.25713 -131.24345 -65.87540 60.10965 -51.38990 31.41856 12.04321 -3.96169 6.51189 9.23908 -2.57450 77.06421 -9.05154 92.05598 -17.52142 25.64880 99.54160 25.36328 7.37762 19.66071 12.67626 -23.92006 10.11797 -42.06856 53.61740 83.37191 -8.76436 0.18935 0.00899 30.72562 66.12803 -54.82635 -46.12335 11.07588 16.63918 43.71772 12.05149 -44.34143 -23.86549 0.06738 0.02272 12.27246 -42.40260 34.22696 
-255.84468 92.11826 -185.87701 30.37217 12.35432 65.85313 -20.83973 28.52093 2.28611 0.01115 0.01421 0.00932 -2.86219 -14.17340 15.54004 0.05044 7.62875 2.60778 -125.46693 -40.59275 -127.63040 -47.92501 53.45208 -61.96944 33.26813 22.06506 2.68285 4.66643 9.90665 -0.51917 72.62928 -1.40139 95.68237 -17.35869 24.14883 98.38296 24.19593 -1.58381 9.10953 10.18514 -23.96472 15.14953 -42.14926 60.47570 83.18307 -23.39515 -0.02432 -0.10179 12.24883 77.85313 -24.48474 -52.56985 10.64796 22.20105 45.85112 9.75220 -45.38030 -21.99094 0.02957 -0.02243 9.38427 -41.22866 34.01404 
-256.15759 92.11140 -186.11835 34.25980 14.12736 62.36414 -24.60939 29.14518 3.55510 0.00933 0.02146 0.01519 -0.76115 -16.73755 14.36222 -0.42926 8.54601 3.91531 -113.46219 -45.34499 -120.52841 -32.89942 43.09393 -67.28564 29.17987 6.74954 -7.45073 2.19937 10.65281 1.95720 67.93210 6.04393 99.69544 -14.98512 22.85892 96.29433 25.71039 12.93190 21.21689 8.69163 -25.38096 20.99241 -35.36526 68.73225 74.51807 -37.55639 -0.43989 -0.02311 -44.62788 73.35320 45.24577 -58.19345 9.95488 27.04257 47.64021 6.46056 -44.47992 -21.03829 0.00873 -0.02838 5.62499 -38.97364 31.74547 
-256.40927 92.35800 -186.26398 37.75599 15.49545 58.98753 -27.44642 29.24473 4.49449 0.00488 0.02838 0.02057 0.49793 -18.61340 13.51248 -1.29092 9.54752 5.41680 -98.42874 -49.04679 -109.26799 -21.74389 29.77528 -67.45271 26.70366 19.53412 6.51801 -0.67141 11.36240 4.70294 63.64640 13.17495 104.13324 -11.06781 21.92855 93.53639 24.24760 10.21372 -3.43238 8.52960 -28.11582 27.61258 -17.02137 73.78252 55.61412 -30.56769 0.23386 -0.16905 -77.86407 58.55319 64.68608 -62.99352 9.15649 31.17806 48.63107 4.18010 -43.32353 -19.30622 -0.00875 -0.02268 2.02341 -37.06039 29.17179 
